PathFileType	4	(X/Y/Z)	\\Move.snu.ac.kr\motion\Animal\091204_091205_Bird\091205_bird\Project 2\Capture day 2\Session 1\pigeon_011.trc
DataRate	CameraRate	NumFrames	NumMarkers	Units	OrigDataRate	OrigDataStartFrame	OrigNumFrames
240.0	240.0	20	14	mm	240.0	278	1439
Frame#	Time	14MarkersBird:Head			14MarkersBird:C_back			14MarkersBird:Spine			14MarkersBird:L-shoulder			14MarkersBird:L-elbow			14MarkersBird:L-wrist			14MarkersBird:L-hand			14MarkersBird:R-shoulder			14MarkersBird:R-elbow			14MarkersBird:R-Wrist			14MarkersBird:R-hand			14MarkersBird:C_Tail			14MarkersBird:L-Tale			14MarkersBird:R-Tale			
		X1	Y1	Z1	X2	Y2	Z2	X3	Y3	Z3	X4	Y4	Z4	X5	Y5	Z5	X6	Y6	Z6	X7	Y7	Z7	X8	Y8	Z8	X9	Y9	Z9	X10	Y10	Z10	X11	Y11	Z11	X12	Y12	Z12	X13	Y13	Z13	X14	Y14	Z14	

895	3.725	767.32843	35.70971	2081.22900	737.90710	41.02064	2025.15979	701.01569	30.35842	1985.88135	769.12463	30.90068	2039.51257	779.85370	15.31032	2011.56287	809.09351	-6.76669	2037.36877	826.86853	-27.23194	2043.31677	737.34229	37.25218	2066.99146	710.60980	39.21282	2073.21191	721.12793	21.77917	2111.83691	712.50012	2.81969	2143.49170	632.85333	-50.45414	1918.72571	741.77332	-36.35622	1912.66650	594.33649	6.02093	2018.36719	
896	3.729	780.78552	32.68181	2098.28833	750.71497	37.88530	2042.27515	713.63593	26.35915	2003.19177	782.09723	28.03471	2056.12183	791.40210	10.82026	2028.20532	819.67114	-8.85527	2057.06860	833.65607	-30.60645	2066.43262	750.49323	34.51571	2084.02173	723.11951	35.02468	2089.65845	738.02142	17.96763	2127.00415	733.23730	-5.28023	2157.15601	645.72626	-56.23160	1937.94421	753.84674	-41.98344	1930.92749	606.99976	2.26636	2036.26636	
897	3.733	794.36273	29.70229	2115.44409	763.70245	34.40370	2059.69043	726.49249	22.35902	2020.61670	795.08173	24.82765	2073.10767	803.01123	7.58160	2044.13306	831.63379	-8.63922	2074.83936	842.48450	-30.97892	2086.62793	763.72717	31.68317	2101.20898	735.33905	32.26361	2105.45532	753.69342	17.16480	2141.81543	751.83508	-8.91381	2170.92188	658.65289	-61.60254	1957.03027	765.32373	-48.03998	1949.16687	619.75916	-1.96908	2054.01270	
898	3.737	808.01074	26.69051	2132.71802	776.87170	30.48292	2077.47534	739.55646	18.37110	2038.24048	808.05719	21.19751	2090.50537	814.60352	5.68532	2059.49023	844.61328	-6.65395	2090.67969	853.78247	-29.49941	2103.38306	776.99652	28.55051	2118.52173	747.46124	30.88268	2120.65088	767.97156	18.90641	2156.42798	767.20782	-8.88332	2184.99756	671.39874	-66.40151	1976.03613	776.15137	-54.34259	1967.41199	632.70465	-6.77191	2071.64648	
899	3.742	821.68866	23.55323	2150.09644	790.16827	26.11640	2095.63354	752.81018	14.44870	2056.05762	821.05334	17.18601	2108.21924	825.86865	5.00290	2074.73364	857.97345	-3.53652	2104.89380	866.98938	-27.35917	2116.49951	790.28644	24.99464	2135.90015	759.84943	30.57166	2135.04956	780.99695	22.52676	2170.87231	778.84595	-6.14447	2199.29907	683.88629	-70.51820	1994.87244	786.59290	-60.53378	1985.61816	645.90912	-11.95359	2089.23926	
900	3.746	835.36426	20.22996	2167.51270	803.49908	21.37778	2114.09106	766.27063	10.67651	2073.97754	834.03052	12.85007	2126.20313	836.47723	5.17191	2090.48242	871.20935	0.21979	2117.97900	880.84454	-25.08443	2126.10645	803.61646	21.00623	2153.32251	772.99042	30.75747	2148.44434	793.14594	27.34635	2185.05786	786.87201	-1.39506	2213.22900	696.18732	-74.07417	2013.47058	797.21057	-66.14306	2003.63635	659.33606	-16.99054	2106.86914	
901	3.750	849.00525	16.68569	2184.90088	816.78162	16.37652	2132.72241	779.90411	7.05762	2091.92017	846.96851	8.30244	2144.39575	846.36035	5.71947	2107.21826	884.04810	4.30051	2130.51367	893.99518	-22.31749	2132.72778	816.99237	16.67701	2170.73853	787.32422	30.80200	2160.90039	804.92963	32.64179	2198.82324	792.13910	4.90785	2225.76514	708.45197	-77.33076	2031.77795	808.72253	-70.72308	2021.25842	672.82971	-21.12591	2124.56201	
902	3.754	862.58569	12.92156	2202.22485	830.00665	11.21781	2151.34619	793.58759	3.41032	2109.88184	859.90784	3.63704	2162.66138	855.77618	6.21858	2125.11035	896.30432	8.31414	2143.09131	905.46222	-18.32657	2137.51929	830.43622	12.18295	2188.07056	803.03180	30.12428	2172.92896	816.86609	37.56673	2212.08228	796.03564	12.60808	2236.01855	720.84845	-80.47855	2049.67212	821.67035	-74.09868	2038.46826	686.20477	-23.52046	2142.21118	
903	3.758	876.10895	8.96172	2219.46094	843.25256	6.04779	2169.76929	807.19012	-0.51328	2127.76831	872.90796	-1.08751	2180.76392	865.16504	6.29167	2144.02905	907.96283	11.67906	2156.33301	914.98804	-12.64013	2142.29053	843.96790	7.64845	2205.24512	819.94397	28.23063	2185.38989	829.26727	41.28578	2225.01904	800.18640	21.80936	2243.56543	733.46057	-83.56321	2066.96069	836.18042	-76.38107	2055.41919	699.42188	-23.63337	2159.65894	
904	3.763	889.56952	4.81132	2236.62695	856.60278	1.05028	2187.83081	820.61700	-4.88363	2145.50415	886.01434	-5.90835	2198.50684	875.09167	5.62439	2163.65601	919.32483	13.78106	2170.68311	923.21912	-5.32216	2148.93311	857.54218	3.05903	2222.29736	837.52917	24.95653	2199.01587	842.03998	43.30403	2238.14551	806.35583	32.33998	2248.78662	746.27191	-86.58714	2083.51025	851.90833	-77.78994	2072.21313	712.67242	-21.74279	2176.92456	
905	3.767	902.94672	0.46280	2253.78662	869.95752	-3.72061	2205.48804	833.82886	-9.73679	2163.04248	899.31158	-10.74579	2215.94434	886.15851	3.91926	2183.47729	931.05640	14.21143	2185.89160	931.57178	2.89060	2158.56177	871.03711	-1.62530	2239.39844	854.91199	20.54435	2214.16089	854.66992	43.59094	2252.14722	815.86877	43.32950	2253.37915	759.22833	-89.54889	2099.31982	868.25928	-78.51427	2088.76294	726.20337	-18.99146	2194.23145	
906	3.771	916.21985	-4.07388	2270.97388	883.18665	-8.33479	2222.80103	846.76184	-15.06642	2180.41211	912.78912	-15.59274	2233.13843	898.83057	1.05906	2202.84253	943.84760	12.81093	2201.05444	941.79059	10.59788	2171.14258	884.30670	-6.40052	2256.68701	871.13043	15.62135	2230.85107	866.43164	42.34349	2267.55688	828.68817	53.22341	2260.23413	772.30060	-92.32835	2114.41089	884.61304	-79.01907	2105.14307	740.03625	-16.90837	2211.88159	
907	3.775	929.37000	-8.77099	2288.17554	896.29639	-12.88226	2239.77881	859.37634	-20.76334	2197.64526	926.28497	-20.53819	2250.05762	913.16003	-2.88861	2221.14844	957.93640	9.52946	2215.47559	955.32324	15.87738	2185.74756	897.25641	-11.18296	2274.14478	885.54041	10.99830	2248.86133	876.80017	39.71046	2284.52222	842.98621	60.35912	2272.30713	785.48590	-94.72147	2128.84253	900.38538	-80.28793	2121.86279	753.87152	-16.89605	2230.01294	
908	3.779	942.42316	-13.58084	2305.32959	909.32404	-17.41138	2256.37354	871.77716	-26.57976	2214.79346	939.65448	-25.56137	2266.71997	928.66229	-7.73479	2238.14087	972.99744	4.22318	2229.15161	972.63220	16.75720	2201.21558	909.90765	-15.89289	2291.61108	898.04590	7.23085	2267.67969	885.85327	35.69858	2302.86450	856.31958	63.53839	2290.94897	798.75439	-96.58201	2142.81494	915.22070	-83.20332	2139.30103	767.27570	-19.83834	2248.51978	
909	3.783	955.40674	-18.44711	2322.39258	922.27991	-21.94801	2272.58081	884.21539	-32.27784	2231.90796	952.85474	-30.52604	2283.19312	944.61707	-13.32173	2253.99219	988.52679	-3.22231	2242.66626	992.90149	12.12515	2216.83618	922.45203	-20.44464	2308.91870	908.95367	4.08182	2286.92871	894.25586	30.23409	2322.38574	867.46838	62.12505	2315.35962	812.00140	-97.94817	2156.68384	929.10358	-87.81014	2157.15332	780.03619	-25.83303	2267.16699	
910	3.787	968.32300	-23.28159	2339.36475	935.20892	-26.46696	2288.48877	896.86371	-37.79627	2249.04053	965.96155	-35.34259	2299.49902	960.57678	-19.54535	2269.15332	1004.27008	-12.72546	2256.71997	1014.49518	2.28472	2232.85889	935.14612	-24.76963	2326.02197	918.86719	0.76550	2306.49976	902.93311	23.28391	2343.05762	877.12396	56.06627	2343.66992	825.10516	-99.24206	2170.94653	942.16510	-93.54259	2174.88330	792.28693	-34.17885	2285.73901	
911	3.792	981.17902	-27.96076	2356.25049	948.13562	-30.87761	2304.22998	909.63544	-43.06428	2266.07349	979.08612	-39.82046	2315.71484	976.50348	-26.36915	2284.11230	1020.17072	-23.76758	2272.10156	1035.89221	-11.35300	2250.22046	948.11560	-28.84935	2342.99683	928.54883	-3.45087	2326.47070	912.66125	14.87081	2364.81055	887.02789	45.75953	2373.92456	837.96179	-101.33987	2186.18677	954.50952	-99.76796	2192.24097	804.36511	-43.75484	2304.11279	
912	3.796	994.00818	-32.36917	2373.04785	961.04187	-35.03432	2319.94507	922.34229	-47.90176	2282.85767	992.24371	-43.78810	2331.93237	992.46954	-33.69293	2299.31494	1036.18372	-35.70173	2289.41553	1056.21887	-27.06904	2269.80591	961.29767	-32.73679	2359.90723	938.64020	-8.77502	2346.87915	923.96326	5.09150	2387.34375	898.72235	31.92159	2404.45117	850.51819	-105.32621	2202.98486	966.23962	-106.04951	2209.21606	816.62299	-53.42854	2322.22876	
913	3.800	1006.86798	-36.42356	2389.74072	973.85425	-38.82916	2335.76587	934.96979	-52.15502	2299.41455	1005.41187	-47.16439	2348.22437	1008.40277	-41.27449	2315.12061	1051.98486	-47.91166	2308.90552	1075.06116	-43.51597	2292.05078	974.57898	-36.46686	2376.71509	949.45691	-15.00763	2367.64868	937.19775	-5.85348	2410.10889	912.97461	15.51055	2434.00610	862.80280	-111.86211	2221.72632	977.50208	-112.19376	2225.95410	829.27191	-62.35629	2340.06738	
914	3.804	1019.83496	-40.07553	2406.29639	986.54883	-42.17986	2351.77930	947.61371	-55.83628	2315.91309	1018.53979	-50.00906	2364.58618	1024.10376	-48.76014	2331.73145	1067.03821	-59.67874	2330.51074	1092.08411	-59.77218	2316.94336	987.90393	-39.97556	2393.36353	961.15686	-21.77133	2388.54370	952.47107	-17.58745	2432.43066	929.91931	-2.42966	2461.69507	874.97217	-120.65607	2242.39722	988.52460	-118.04612	2242.55884	842.34375	-70.06817	2357.71948	
